<svg id="Слой_1" data-name="Слой 1" xmlns="http://www.w3.org/2000/svg" viewBox="0 0 229.67 231.43"><defs><style>.cls-1{fill:#c9203e;}.cls-2,.cls-3,.cls-6{fill:#fff;}.cls-3{font-size:28px;}.cls-3,.cls-6{font-family:Roboto-Bold, Roboto;font-weight:700;}.cls-4{letter-spacing:0em;}.cls-5{letter-spacing:-0.01em;}.cls-6{font-size:8.8px;}.cls-7{letter-spacing:0em;}.cls-8{letter-spacing:-0.02em;}.cls-9{letter-spacing:-0.01em;}.cls-10{letter-spacing:0.01em;}.cls-11{letter-spacing:0.02em;}</style></defs><title>Монтажная область 1</title><path class="cls-1" d="M40.59,6.59H225.43a.33.33,0,0,1,.33.33V192.09a35.35,35.35,0,0,1-35.35,35.35H5.24a.33.33,0,0,1-.33-.33V42.28A35.69,35.69,0,0,1,40.59,6.59Z"/><rect class="cls-2" x="63.83" y="91.77" width="50.5" height="50.5"/><polygon class="cls-2" points="89.08 41.31 89.08 79.16 126.94 79.16 126.94 117.02 164.79 117.02 164.79 41.31 89.08 41.31"/><text class="cls-3" transform="translate(25.48 180.43)">К<tspan class="cls-4" x="18.09" y="0">Л</tspan><tspan class="cls-5" x="37.93" y="0">А</tspan><tspan x="56.38" y="0">СС-КЛИК</tspan></text><text class="cls-6" transform="translate(26.5 195.03)">ЕДИ<tspan class="cls-7" x="17.69" y="0">Н</tspan><tspan x="23.93" y="0">АЯ СИ</tspan><tspan class="cls-8" x="49.21" y="0">С</tspan><tspan x="54.82" y="0">ТЕ</tspan><tspan class="cls-7" x="65.22" y="0">М</tspan><tspan x="72.95" y="0">А </tspan><tspan class="cls-9" x="81.06" y="0">Д</tspan><tspan x="87.52" y="0">О</tspan><tspan class="cls-7" x="93.59" y="0">М</tspan><tspan x="101.32" y="0">АШН</tspan><tspan class="cls-7" x="121.9" y="0">И</tspan><tspan x="128.08" y="0">Х З</tspan><tspan class="cls-10" x="141.29" y="0">А</tspan><tspan class="cls-11" x="147.31" y="0">Д</tspan><tspan x="154.03" y="0">АНИЙ</tspan></text></svg>